<svg width="50" height="50" viewBox="0 0 50 50" fill="none" xmlns="http://www.w3.org/2000/svg">
<rect width="50" height="50" rx="10" fill="#0066FF"/>
<path d="M38.1454 38.9888H37.3028V12.5281C37.3028 12.2488 37.0763 12.0225 36.7971 12.0225H27.3589C27.0797 12.0225 26.8533 12.2488 26.8533 12.5281V14.7191H25.8421V12.5281C25.8421 12.2488 25.6157 12.0225 25.3365 12.0225H23.1454V10.5056C23.1454 10.2263 22.919 10 22.6398 10C22.3606 10 22.1342 10.2263 22.1342 10.5056V12.0225H19.9432C19.664 12.0225 19.4376 12.2488 19.4376 12.5281V14.7191H17.9208C17.6415 14.7191 17.4152 14.9454 17.4152 15.2247V19.4382H13.2017C12.9224 19.4382 12.6961 19.6645 12.6961 19.9438V38.9887H11.8533C11.574 38.9887 11.3477 39.215 11.3477 39.4943C11.3477 39.7737 11.5741 40 11.8533 40H38.1454C38.4247 40 38.6511 39.7737 38.6511 39.4944C38.6511 39.2151 38.4246 38.9888 38.1454 38.9888ZM20.4488 13.0337H24.8308V14.7191H20.4488V13.0337ZM18.7634 38.9888H18.4263V38.1461C18.4263 37.8668 18.1999 37.6405 17.9207 37.6405C17.6415 37.6405 17.4151 37.8668 17.4151 38.1461V38.9888H17.078V37.3034H18.7634V38.9888ZM22.1342 26.0112V26.881V38.9888H19.7746V36.7978C19.7746 36.5185 19.5482 36.2922 19.269 36.2922H16.5724C16.2931 36.2922 16.0668 36.5185 16.0668 36.7978V38.9888H13.7072V20.4494H22.1342V26.0112ZM22.6398 19.4382H18.4263V15.7304H26.8533V25.5056H23.1454V23.8202H24.6623C24.9416 23.8202 25.1679 23.5939 25.1679 23.3146C25.1679 23.0353 24.9415 22.809 24.6623 22.809H23.1454V21.1236H24.6623C24.9416 21.1236 25.1679 20.8973 25.1679 20.618C25.1679 20.3387 24.9415 20.1124 24.6623 20.1124H23.1454V19.9439C23.1454 19.6645 22.919 19.4382 22.6398 19.4382ZM31.5724 38.9888H23.1454V26.881V26.5169H31.5724V38.9888ZM36.2915 38.9888H32.5836V26.0112V25.337C32.5836 25.0577 32.3572 24.8314 32.078 24.8314C31.7988 24.8314 31.5724 25.0577 31.5724 25.337V25.5055H30.5612V25.337C30.5612 25.0577 30.3348 24.8314 30.0556 24.8314C29.7764 24.8314 29.55 25.0577 29.55 25.337V25.5055H27.8646V15.2247V13.0337H36.2915V38.9888H36.2915Z" fill="white"/>
<path d="M25.3357 37.9777C25.6149 37.9777 25.8413 37.7513 25.8413 37.4721V28.0339C25.8413 27.7546 25.6149 27.5283 25.3357 27.5283C25.0565 27.5283 24.8301 27.7546 24.8301 28.0339V37.4721C24.8301 37.7513 25.0564 37.9777 25.3357 37.9777Z" fill="white"/>
<path d="M27.3589 37.9777C27.6381 37.9777 27.8645 37.7513 27.8645 37.4721V28.0339C27.8645 27.7546 27.6381 27.5283 27.3589 27.5283C27.0797 27.5283 26.8533 27.7546 26.8533 28.0339V37.4721C26.8532 37.7513 27.0796 37.9777 27.3589 37.9777Z" fill="white"/>
<path d="M29.3806 37.9777C29.6599 37.9777 29.8862 37.7513 29.8862 37.4721V28.0339C29.8862 27.7546 29.6598 27.5283 29.3806 27.5283C29.1014 27.5283 28.875 27.7546 28.875 28.0339V37.4721C28.875 37.7513 29.1014 37.9777 29.3806 37.9777Z" fill="white"/>
<path d="M30.0564 16.4046C30.3356 16.4046 30.562 16.1783 30.562 15.899V15.2248C30.562 14.9455 30.3356 14.7192 30.0564 14.7192C29.7772 14.7192 29.5508 14.9455 29.5508 15.2248V15.899C29.5508 16.1783 29.7771 16.4046 30.0564 16.4046Z" fill="white"/>
<path d="M32.0781 16.4044C32.3574 16.4044 32.5837 16.1782 32.5837 15.8988V15.2247C32.5837 14.9454 32.3573 14.7191 32.0781 14.7191C31.7989 14.7191 31.5725 14.9454 31.5725 15.2247V15.8989C31.5725 16.1782 31.7989 16.4044 32.0781 16.4044Z" fill="white"/>
<path d="M34.1013 16.4046C34.3806 16.4046 34.6069 16.1783 34.6069 15.899V15.2248C34.6069 14.9455 34.3805 14.7192 34.1013 14.7192C33.8221 14.7192 33.5957 14.9455 33.5957 15.2248V15.899C33.5957 16.1783 33.8221 16.4046 34.1013 16.4046Z" fill="white"/>
<path d="M30.0564 19.7752C30.3356 19.7752 30.562 19.5489 30.562 19.2696V18.5954C30.562 18.3161 30.3356 18.0898 30.0564 18.0898C29.7772 18.0898 29.5508 18.3161 29.5508 18.5954V19.2696C29.5508 19.5489 29.7771 19.7752 30.0564 19.7752Z" fill="white"/>
<path d="M32.0781 19.7752C32.3574 19.7752 32.5837 19.5489 32.5837 19.2696V18.5954C32.5837 18.3161 32.3573 18.0898 32.0781 18.0898C31.7989 18.0898 31.5725 18.3161 31.5725 18.5954V19.2696C31.5725 19.5489 31.7989 19.7752 32.0781 19.7752Z" fill="white"/>
<path d="M34.1013 19.7752C34.3806 19.7752 34.6069 19.5489 34.6069 19.2696V18.5954C34.6069 18.3161 34.3805 18.0898 34.1013 18.0898C33.8221 18.0898 33.5957 18.3161 33.5957 18.5954V19.2696C33.5957 19.5489 33.8221 19.7752 34.1013 19.7752Z" fill="white"/>
<path d="M30.0564 23.1461C30.3356 23.1461 30.562 22.9198 30.562 22.6405V21.9663C30.562 21.687 30.3356 21.4607 30.0564 21.4607C29.7772 21.4607 29.5508 21.687 29.5508 21.9663V22.6405C29.5508 22.9197 29.7771 23.1461 30.0564 23.1461Z" fill="white"/>
<path d="M32.0781 23.1461C32.3574 23.1461 32.5837 22.9198 32.5837 22.6405V21.9663C32.5837 21.687 32.3573 21.4607 32.0781 21.4607C31.7989 21.4607 31.5725 21.687 31.5725 21.9663V22.6405C31.5725 22.9197 31.7989 23.1461 32.0781 23.1461Z" fill="white"/>
<path d="M34.1013 23.1461C34.3806 23.1461 34.6069 22.9198 34.6069 22.6405V21.9663C34.6069 21.687 34.3805 21.4607 34.1013 21.4607C33.8221 21.4607 33.5957 21.687 33.5957 21.9663V22.6405C33.5957 22.9197 33.8221 23.1461 34.1013 23.1461Z" fill="white"/>
<path d="M15.8982 24.4944C16.1774 24.4944 16.4038 24.2681 16.4038 23.9887V23.3146C16.4038 23.0352 16.1774 22.809 15.8982 22.809C15.619 22.809 15.3926 23.0352 15.3926 23.3146V23.9887C15.3926 24.268 15.619 24.4944 15.8982 24.4944Z" fill="white"/>
<path d="M17.9216 24.4945C18.2009 24.4945 18.4272 24.2682 18.4272 23.9889V23.3147C18.4272 23.0354 18.2008 22.8091 17.9216 22.8091C17.6424 22.8091 17.416 23.0354 17.416 23.3147V23.9889C17.416 24.2681 17.6424 24.4945 17.9216 24.4945Z" fill="white"/>
<path d="M19.9431 24.4944C20.2224 24.4944 20.4487 24.2681 20.4487 23.9887V23.3146C20.4487 23.0352 20.2223 22.809 19.9431 22.809C19.6639 22.809 19.4375 23.0352 19.4375 23.3146V23.9887C19.4375 24.268 19.6638 24.4944 19.9431 24.4944Z" fill="white"/>
<path d="M15.8982 27.8652C16.1774 27.8652 16.4038 27.6389 16.4038 27.3596V26.6854C16.4038 26.4061 16.1774 26.1798 15.8982 26.1798C15.619 26.1798 15.3926 26.4061 15.3926 26.6854V27.3596C15.3926 27.6389 15.619 27.8652 15.8982 27.8652Z" fill="white"/>
<path d="M17.9216 27.8651C18.2009 27.8651 18.4272 27.6388 18.4272 27.3595V26.6853C18.4272 26.406 18.2008 26.1797 17.9216 26.1797C17.6424 26.1797 17.416 26.406 17.416 26.6853V27.3595C17.416 27.6387 17.6424 27.8651 17.9216 27.8651Z" fill="white"/>
<path d="M19.9431 27.8652C20.2224 27.8652 20.4487 27.6389 20.4487 27.3596V26.6854C20.4487 26.4061 20.2223 26.1798 19.9431 26.1798C19.6639 26.1798 19.4375 26.4061 19.4375 26.6854V27.3596C19.4375 27.6389 19.6638 27.8652 19.9431 27.8652Z" fill="white"/>
<path d="M15.8982 31.2359C16.1774 31.2359 16.4038 31.0096 16.4038 30.7303V30.0561C16.4038 29.7768 16.1774 29.5505 15.8982 29.5505C15.619 29.5505 15.3926 29.7768 15.3926 30.0561V30.7303C15.3926 31.0096 15.619 31.2359 15.8982 31.2359Z" fill="white"/>
<path d="M17.9216 31.2359C18.2009 31.2359 18.4272 31.0096 18.4272 30.7303V30.0561C18.4272 29.7768 18.2008 29.5505 17.9216 29.5505C17.6424 29.5505 17.416 29.7768 17.416 30.0561V30.7303C17.416 31.0096 17.6424 31.2359 17.9216 31.2359Z" fill="white"/>
<path d="M19.9431 31.2359C20.2224 31.2359 20.4487 31.0096 20.4487 30.7303V30.0561C20.4487 29.7768 20.2223 29.5505 19.9431 29.5505C19.6639 29.5505 19.4375 29.7768 19.4375 30.0561V30.7303C19.4375 31.0096 19.6638 31.2359 19.9431 31.2359Z" fill="white"/>
<path d="M15.8982 34.6068C16.1774 34.6068 16.4038 34.3805 16.4038 34.1012V33.427C16.4038 33.1477 16.1774 32.9214 15.8982 32.9214C15.619 32.9214 15.3926 33.1477 15.3926 33.427V34.1012C15.3926 34.3805 15.619 34.6068 15.8982 34.6068Z" fill="white"/>
<path d="M17.9216 34.6068C18.2009 34.6068 18.4272 34.3805 18.4272 34.1012V33.427C18.4272 33.1477 18.2008 32.9214 17.9216 32.9214C17.6424 32.9214 17.416 33.1477 17.416 33.427V34.1012C17.416 34.3805 17.6424 34.6068 17.9216 34.6068Z" fill="white"/>
<path d="M19.9431 34.6068C20.2224 34.6068 20.4487 34.3805 20.4487 34.1012V33.427C20.4487 33.1477 20.2223 32.9214 19.9431 32.9214C19.6639 32.9214 19.4375 33.1477 19.4375 33.427V34.1012C19.4375 34.3805 19.6638 34.6068 19.9431 34.6068Z" fill="white"/>
<path d="M34.1013 26.5169C34.3806 26.5169 34.6069 26.2906 34.6069 26.0113V25.3371C34.6069 25.0578 34.3805 24.8315 34.1013 24.8315C33.8221 24.8315 33.5957 25.0578 33.5957 25.3371V26.0113C33.5957 26.2906 33.8221 26.5169 34.1013 26.5169Z" fill="white"/>
<path d="M34.1013 29.8875C34.3806 29.8875 34.6069 29.6612 34.6069 29.3819V28.7078C34.6069 28.4284 34.3805 28.2021 34.1013 28.2021C33.8221 28.2021 33.5957 28.4284 33.5957 28.7078V29.3819C33.5957 29.6612 33.8221 29.8875 34.1013 29.8875Z" fill="white"/>
<path d="M34.1013 33.2584C34.3806 33.2584 34.6069 33.0321 34.6069 32.7528V32.0786C34.6069 31.7993 34.3805 31.573 34.1013 31.573C33.8221 31.573 33.5957 31.7993 33.5957 32.0786V32.7528C33.5957 33.032 33.8221 33.2584 34.1013 33.2584Z" fill="white"/>
<path d="M34.1013 36.6292C34.3806 36.6292 34.6069 36.4029 34.6069 36.1236V35.4495C34.6069 35.1701 34.3805 34.9438 34.1013 34.9438C33.8221 34.9438 33.5957 35.1701 33.5957 35.4495V36.1236C33.5957 36.4029 33.8221 36.6292 34.1013 36.6292Z" fill="white"/>
<path d="M25.1675 17.9214C25.1675 17.6421 24.9411 17.4158 24.6619 17.4158H20.6169C20.3377 17.4158 20.1113 17.6421 20.1113 17.9214C20.1113 18.2007 20.3377 18.427 20.6169 18.427H24.6619C24.9412 18.427 25.1675 18.2007 25.1675 17.9214Z" fill="white"/>
</svg>
