<svg width="50" height="50" viewBox="0 0 50 50" fill="none" xmlns="http://www.w3.org/2000/svg">
<rect width="50" height="50" rx="10" fill="#0066FF"/>
<g clip-path="url(#clip0_1_420)">
<path d="M28.5789 21.0368L24.9999 18.8133L17.3611 23.559V34.4656H32.6386V23.559L30.5698 22.2736" stroke="white" stroke-width="0.878906" stroke-miterlimit="10" stroke-linecap="round" stroke-linejoin="round"/>
<path d="M30.577 22.2599C32.3517 23.3565 34.278 24.5466 34.278 24.5466C34.7935 24.867 35.4737 24.6594 35.7216 24.106C35.9258 23.65 35.7614 23.1134 35.3366 22.8494L25.4108 16.7142C25.1357 16.5572 24.8606 16.5572 24.5856 16.7142L14.6597 22.8494C14.2349 23.1134 14.0706 23.65 14.2748 24.106C14.5227 24.6594 15.2029 24.867 15.7184 24.5466L24.9982 18.8131C24.9982 18.8131 26.8833 19.9777 28.583 21.0279" stroke="white" stroke-width="0.878906" stroke-miterlimit="10" stroke-linecap="round" stroke-linejoin="round"/>
<path d="M22.6094 32.4391V34.4656H27.3933V28.1346H22.6094V30.1013" stroke="white" stroke-width="0.878906" stroke-miterlimit="10" stroke-linecap="round" stroke-linejoin="round"/>
<path d="M27.0642 17.7346V15.5565C27.0642 15.233 27.3265 14.9706 27.6501 14.9706H30.0991C30.4227 14.9706 30.6851 14.7083 30.6851 14.3846V12.7149" stroke="white" stroke-width="0.878906" stroke-miterlimit="10" stroke-linecap="round" stroke-linejoin="round"/>
<path d="M30.6826 12.6755C31.2991 12.6755 31.8007 12.1739 31.8007 11.5574C31.8007 10.9409 31.2991 10.4392 30.6826 10.4392C30.0661 10.4392 29.5645 10.9409 29.5645 11.5574C29.5645 12.1739 30.0661 12.6755 30.6826 12.6755Z" stroke="white" stroke-width="0.878906" stroke-miterlimit="10" stroke-linecap="round" stroke-linejoin="round"/>
<path d="M30.0449 19.5774H33.9091C34.2327 19.5774 34.495 19.3151 34.495 18.9915V14.433C34.495 14.1094 34.7574 13.847 35.0809 13.847H37.296" stroke="white" stroke-width="0.878906" stroke-miterlimit="10" stroke-linecap="round" stroke-linejoin="round"/>
<path d="M22.9373 17.7346V15.5565C22.9373 15.233 22.6749 14.9706 22.3513 14.9706H19.9023C19.5788 14.9706 19.3164 14.7083 19.3164 14.3846V12.7149" stroke="white" stroke-width="0.878906" stroke-miterlimit="10" stroke-linecap="round" stroke-linejoin="round"/>
<path d="M19.3154 12.6755C18.6989 12.6755 18.1973 12.1739 18.1973 11.5574C18.1973 10.9409 18.6989 10.4392 19.3154 10.4392C19.9319 10.4392 20.4336 10.9409 20.4336 11.5574C20.4336 12.1739 19.9319 12.6755 19.3154 12.6755Z" stroke="white" stroke-width="0.878906" stroke-miterlimit="10" stroke-linecap="round" stroke-linejoin="round"/>
<path d="M19.9581 19.5774H16.094C15.7703 19.5774 15.508 19.3151 15.508 18.9915V14.433C15.508 14.1094 15.2457 13.847 14.9221 13.847H12.707" stroke="white" stroke-width="0.878906" stroke-miterlimit="10" stroke-linecap="round" stroke-linejoin="round"/>
<path d="M11.5576 14.8743C10.9411 14.8743 10.4395 14.3726 10.4395 13.7561C10.4395 13.1395 10.9411 12.6379 11.5576 12.6379C12.1741 12.6379 12.6758 13.1395 12.6758 13.7561C12.6758 14.3726 12.1741 14.8743 11.5576 14.8743Z" stroke="white" stroke-width="0.878906" stroke-miterlimit="10" stroke-linecap="round" stroke-linejoin="round"/>
<path d="M38.4405 14.874C37.8239 14.874 37.3223 14.3724 37.3223 13.7559C37.3223 13.1393 37.8239 12.6377 38.4405 12.6377C39.057 12.6377 39.5586 13.1393 39.5586 13.7559C39.5586 14.3724 39.057 14.874 38.4405 14.874Z" stroke="white" stroke-width="0.878906" stroke-miterlimit="10" stroke-linecap="round" stroke-linejoin="round"/>
<path d="M16.6787 39.5605C17.2952 39.5605 17.7968 39.0589 17.7968 38.4424C17.7968 37.8258 17.2952 37.3242 16.6787 37.3242C16.0622 37.3242 15.5605 37.8258 15.5605 38.4424C15.5605 39.0589 16.0622 39.5605 16.6787 39.5605Z" stroke="white" stroke-width="0.878906" stroke-miterlimit="10" stroke-linecap="round" stroke-linejoin="round"/>
<path d="M20.8718 34.4653V37.8563C20.8718 38.1799 20.6095 38.4423 20.2859 38.4423H17.8005" stroke="white" stroke-width="0.878906" stroke-miterlimit="10" stroke-linecap="round" stroke-linejoin="round"/>
<path d="M33.3176 39.5605C32.7011 39.5605 32.1995 39.0589 32.1995 38.4424C32.1995 37.8258 32.7011 37.3242 33.3176 37.3242C33.9341 37.3242 34.4358 37.8258 34.4358 38.4424C34.4358 39.0589 33.9341 39.5605 33.3176 39.5605Z" stroke="white" stroke-width="0.878906" stroke-miterlimit="10" stroke-linecap="round" stroke-linejoin="round"/>
<path d="M29.1309 34.4651V37.8562C29.1309 38.1798 29.3932 38.4421 29.7168 38.4421H32.2022" stroke="white" stroke-width="0.878906" stroke-miterlimit="10" stroke-linecap="round" stroke-linejoin="round"/>
<path d="M32.6389 27.1618H34.4046C34.7282 27.1618 34.9906 27.4241 34.9906 27.7477V31.6324C34.9906 31.956 35.2528 32.2184 35.5765 32.2184H37.8559C38.1795 32.2184 38.4419 32.4807 38.4419 32.8043V34.9806" stroke="white" stroke-width="0.878906" stroke-miterlimit="10" stroke-linecap="round" stroke-linejoin="round"/>
<path d="M38.4405 37.2168C37.8239 37.2168 37.3223 36.7152 37.3223 36.0987C37.3223 35.4821 37.8239 34.9804 38.4405 34.9804C39.057 34.9804 39.5586 35.4821 39.5586 36.0987C39.5586 36.7152 39.057 37.2168 38.4405 37.2168Z" stroke="white" stroke-width="0.878906" stroke-miterlimit="10" stroke-linecap="round" stroke-linejoin="round"/>
<path d="M38.4405 30.239C37.8239 30.239 37.3223 29.7374 37.3223 29.1209C37.3223 28.5043 37.8239 28.0027 38.4405 28.0027C39.057 28.0027 39.5586 28.5043 39.5586 29.1209C39.5586 29.7374 39.057 30.239 38.4405 30.239Z" stroke="white" stroke-width="0.878906" stroke-miterlimit="10" stroke-linecap="round" stroke-linejoin="round"/>
<path d="M34.9922 29.1213H37.3253" stroke="white" stroke-width="0.878906" stroke-miterlimit="10" stroke-linecap="round" stroke-linejoin="round"/>
<path d="M17.3615 27.1619H15.5958C15.2723 27.1619 15.0099 27.4242 15.0099 27.7478V31.6325C15.0099 31.9562 14.7476 32.2185 14.4239 32.2185H12.1445C11.8209 32.2185 11.5586 32.4808 11.5586 32.8044V34.9807" stroke="white" stroke-width="0.878906" stroke-miterlimit="10" stroke-linecap="round" stroke-linejoin="round"/>
<path d="M11.5576 37.2168C12.1741 37.2168 12.6758 36.7152 12.6758 36.0987C12.6758 35.4821 12.1741 34.9804 11.5576 34.9804C10.9411 34.9804 10.4395 35.4821 10.4395 36.0987C10.4395 36.7152 10.9411 37.2168 11.5576 37.2168Z" stroke="white" stroke-width="0.878906" stroke-miterlimit="10" stroke-linecap="round" stroke-linejoin="round"/>
<path d="M11.5576 30.2394C12.1741 30.2394 12.6758 29.7378 12.6758 29.1212C12.6758 28.5047 12.1741 28.003 11.5576 28.003C10.9411 28.003 10.4395 28.5047 10.4395 29.1212C10.4395 29.7378 10.9411 30.2394 11.5576 30.2394Z" stroke="white" stroke-width="0.878906" stroke-miterlimit="10" stroke-linecap="round" stroke-linejoin="round"/>
<path d="M15.0108 29.1213H12.7363" stroke="white" stroke-width="0.878906" stroke-miterlimit="10" stroke-linecap="round" stroke-linejoin="round"/>
</g>
<defs>
<clipPath id="clip0_1_420">
<rect width="30" height="30" fill="white" transform="translate(10 10)"/>
</clipPath>
</defs>
</svg>
