<svg width="50" height="50" viewBox="0 0 50 50" fill="none" xmlns="http://www.w3.org/2000/svg">
<rect width="50" height="50" rx="10" fill="#0066FF"/>
<g clip-path="url(#clip0_1_396)">
<path d="M37.6562 34.8438V19.375C37.6562 18.0827 36.6048 17.0312 35.3125 17.0312H28.7261C28.4833 13.3727 25.4378 10.4688 21.7188 10.4688C17.9997 10.4688 14.9542 13.3727 14.7114 17.0312H14.6875C13.3952 17.0312 12.3438 18.0827 12.3438 19.375V34.8438H10.4688V37.1875C10.4688 38.4798 11.5202 39.5312 12.8125 39.5312H37.1875C38.4798 39.5312 39.5312 38.4798 39.5312 37.1875V34.8438H37.6562ZM34.8438 23.9195C33.91 22.5911 32.3687 21.7188 30.625 21.7188C27.782 21.7188 25.4688 24.032 25.4688 26.875C25.4688 29.718 27.782 32.0312 30.625 32.0312C32.3687 32.0312 33.91 31.1589 34.8438 29.8305V32.9688H22.9263C23.0552 32.5136 23.125 32.0434 23.125 31.5625C23.125 28.7195 20.8117 26.4062 17.9688 26.4062C16.9544 26.4062 15.9859 26.6992 15.1562 27.2416V20.0036C16.1683 22.6464 18.7244 24.5312 21.7188 24.5312C24.7731 24.5312 27.3714 22.57 28.3398 19.8438H34.8438V23.9195ZM34.8438 26.875C34.8438 29.2009 32.9514 31.0938 30.625 31.0938C28.2986 31.0938 26.4062 29.2009 26.4062 26.875C26.4062 24.5491 28.2986 22.6562 30.625 22.6562C32.9514 22.6562 34.8438 24.5491 34.8438 26.875ZM18.4375 30.1562C18.6962 30.1562 18.9062 30.3667 18.9062 30.625C18.9062 30.8833 18.6962 31.0938 18.4375 31.0938H17.0312V30.1562H18.4375ZM18.4375 32.0312C18.6962 32.0312 18.9062 32.2417 18.9062 32.5C18.9062 32.7583 18.6962 32.9688 18.4375 32.9688H17.0312V32.0312H18.4375ZM19.4847 31.5625C19.7078 31.3136 19.8438 30.985 19.8438 30.625C19.8438 29.8497 19.2128 29.2188 18.4375 29.2188V28.2812H17.5V29.2188H16.0938V32.9688H15.1562V28.4242C15.9311 27.7286 16.9192 27.3438 17.9688 27.3438C20.2952 27.3438 22.1875 29.2366 22.1875 31.5625C22.1875 32.0472 22.1017 32.5183 21.9423 32.9688H19.7575C19.81 32.8216 19.8438 32.665 19.8438 32.5C19.8438 32.14 19.7078 31.8114 19.4847 31.5625ZM21.7188 11.4062C25.0787 11.4062 27.8125 14.14 27.8125 17.5C27.8125 20.86 25.0787 23.5938 21.7188 23.5938C18.3587 23.5938 15.625 20.86 15.625 17.5C15.625 14.14 18.3587 11.4062 21.7188 11.4062ZM13.2812 19.375C13.2812 18.5997 13.9122 17.9688 14.6875 17.9688H14.7114C14.7339 18.3072 14.7747 18.6405 14.8431 18.9639C14.4803 19.0938 14.2188 19.4369 14.2188 19.8438V32.9688C14.2188 33.4858 14.6392 33.9062 15.1562 33.9062H16.0938H18.4375H34.8438C35.3608 33.9062 35.7812 33.4858 35.7812 32.9688V19.8438C35.7812 19.3267 35.3608 18.9062 34.8438 18.9062H28.6084C28.6708 18.6011 28.7055 18.2866 28.7266 17.9688H35.3125C36.0878 17.9688 36.7188 18.5997 36.7188 19.375V34.8438H13.2812V19.375ZM21.7188 35.7812H28.2812V36.25C28.2812 36.5083 28.0713 36.7188 27.8125 36.7188H22.1875C21.9288 36.7188 21.7188 36.5083 21.7188 36.25V35.7812ZM38.5938 37.1875C38.5938 37.9628 37.9628 38.5938 37.1875 38.5938H12.8125C12.0372 38.5938 11.4062 37.9628 11.4062 37.1875V35.7812H20.7812V36.25C20.7812 37.0253 21.4122 37.6562 22.1875 37.6562H27.8125C28.5878 37.6562 29.2188 37.0253 29.2188 36.25V35.7812H38.5938V37.1875Z" fill="white"/>
<path d="M31.0938 24.5312V23.5938H30.1562V24.5312H28.75V29.2188H30.1562V30.1562H31.0938V29.2188C31.8691 29.2188 32.5 28.5878 32.5 27.8125C32.5 27.4525 32.3641 27.1239 32.1409 26.875C32.3641 26.6261 32.5 26.2975 32.5 25.9375C32.5 25.1622 31.8691 24.5312 31.0938 24.5312ZM31.0938 28.2812H29.6875V27.3438H31.0938C31.3525 27.3438 31.5625 27.5542 31.5625 27.8125C31.5625 28.0708 31.3525 28.2812 31.0938 28.2812ZM31.0938 26.4062H29.6875V25.4688H31.0938C31.3525 25.4688 31.5625 25.6792 31.5625 25.9375C31.5625 26.1958 31.3525 26.4062 31.0938 26.4062Z" fill="white"/>
<path d="M21.25 20.7812H22.1875V19.8438C22.9628 19.8438 23.5938 19.2128 23.5938 18.4375C23.5938 18.0775 23.4578 17.7489 23.2347 17.5C23.4578 17.2511 23.5938 16.9225 23.5938 16.5625C23.5938 15.7872 22.9628 15.1562 22.1875 15.1562V14.2188H21.25V15.1562H19.8438V19.8438H21.25V20.7812ZM20.7812 16.0938H22.1875C22.4462 16.0938 22.6562 16.3042 22.6562 16.5625C22.6562 16.8208 22.4462 17.0312 22.1875 17.0312H20.7812V16.0938ZM20.7812 17.9688H22.1875C22.4462 17.9688 22.6562 18.1792 22.6562 18.4375C22.6562 18.6958 22.4462 18.9062 22.1875 18.9062H20.7812V17.9688Z" fill="white"/>
<path d="M21.7188 22.6562C24.5617 22.6562 26.875 20.343 26.875 17.5C26.875 14.657 24.5617 12.3438 21.7188 12.3438C18.8758 12.3438 16.5625 14.657 16.5625 17.5C16.5625 20.343 18.8758 22.6562 21.7188 22.6562ZM21.7188 13.2812C24.0452 13.2812 25.9375 15.1741 25.9375 17.5C25.9375 19.8259 24.0452 21.7188 21.7188 21.7188C19.3923 21.7188 17.5 19.8259 17.5 17.5C17.5 15.1741 19.3923 13.2812 21.7188 13.2812Z" fill="white"/>
<path d="M35.7812 36.7188H36.7188V37.6562H35.7812V36.7188Z" fill="white"/>
<path d="M32.0312 36.7188H32.9688V37.6562H32.0312V36.7188Z" fill="white"/>
<path d="M33.9062 36.7188H34.8438V37.6562H33.9062V36.7188Z" fill="white"/>
</g>
<defs>
<clipPath id="clip0_1_396">
<rect width="30" height="30" fill="white" transform="translate(10 10)"/>
</clipPath>
</defs>
</svg>
